<svg xmlns="http://www.w3.org/2000/svg" width="10.769" height="8.604" viewBox="0 0 10.769 8.604">
  <path id="パス_53" data-name="パス 53" d="M3998.506-141.109a2.261,2.261,0,0,1,.5-1.948,2.287,2.287,0,0,1,3.275,0,5.361,5.361,0,0,0,1.384-.586,2.893,2.893,0,0,1-.93,1.17l1.23-.289a8.409,8.409,0,0,1-1.144,1.076s.2,2.843-1.438,4.476-4.278,3.027-8.187,1.167a5.992,5.992,0,0,0,3.291-.952,2.465,2.465,0,0,1-2.068-1.467,8.584,8.584,0,0,0,.953-.085s-1.794-.5-1.734-2.141a2.968,2.968,0,0,0,.958.222s-1.6-1.342-.66-2.935C3994.619-142.583,3996.613-141.029,3998.506-141.109Z" transform="translate(-3993.198 143.76)" fill="#fff"/>
</svg>
